<svg xmlns="http://www.w3.org/2000/svg" width="84.555" height="70.615" viewBox="0 0 84.555 70.615">
  <g id="left-quote" transform="translate(0 -7.858)">
    <g id="Group_1685" data-name="Group 1685" transform="translate(0 7.858)">
      <path id="Path_1404" data-name="Path 1404" d="M27.063,39.86a22.4,22.4,0,0,0-6.191-.9,19.455,19.455,0,0,0-7.763,1.59C15.06,33.4,19.748,21.077,29.086,19.689a2.219,2.219,0,0,0,1.809-1.6l2.041-7.3A2.218,2.218,0,0,0,31.1,8a15.5,15.5,0,0,0-2.088-.142c-11.208,0-22.309,11.7-26.993,28.45-2.75,9.827-3.556,24.6,3.217,33.9,3.79,5.2,9.319,7.983,16.434,8.26l.087,0a19.672,19.672,0,0,0,5.3-38.612Z" transform="translate(0 -7.858)" fill="#017db0"/>
      <path id="Path_1405" data-name="Path 1405" d="M87.514,49.15a19.718,19.718,0,0,0-11.827-9.29,22.4,22.4,0,0,0-6.19-.9,19.46,19.46,0,0,0-7.763,1.59c1.951-7.144,6.639-19.469,15.978-20.858a2.22,2.22,0,0,0,1.809-1.6l2.041-7.3A2.218,2.218,0,0,0,79.728,8a15.481,15.481,0,0,0-2.088-.142c-11.208,0-22.309,11.7-26.993,28.45-2.749,9.827-3.555,24.6,3.219,33.9,3.789,5.2,9.319,7.983,16.433,8.259l.088,0A19.672,19.672,0,0,0,87.514,49.15Z" transform="translate(-5.497 -7.858)" fill="#017db0"/>
    </g>
  </g>
</svg>
