<?xml version="1.0" encoding="utf-8"?>
<!-- Generator: Adobe Illustrator 23.0.1, SVG Export Plug-In . SVG Version: 6.00 Build 0)  -->
<svg version="1.1" xmlns="http://www.w3.org/2000/svg" xmlns:xlink="http://www.w3.org/1999/xlink" x="0px" y="0px"
	 viewBox="0 0 257.3 88.47" style="enable-background:new 0 0 257.3 88.47;" xml:space="preserve">
<style type="text/css">
	.st0{fill:#DF253A;}
	.st1{fill:#FCB219;}
	.st2{fill:#9BD3F2;}
	.st3{fill:#231F20;}
</style>
<g id="Layer_5">
</g>
<g id="Red_Trapazoid">
	<polygon class="st0" points="126.91,0 92.6,57.94 126.36,57.98 143.61,28.21 	"/>
	<polygon class="st0" points="52.69,88.48 87,30.54 53.24,30.5 35.99,60.27 	"/>
	<polygon class="st0" points="204.78,88.48 239.08,30.54 205.32,30.5 188.08,60.27 	"/>
</g>
<g id="Yellow_Trapazoid">
	<polygon class="st1" points="126.4,59.97 91.33,59.96 74.39,88.47 142.93,88.47 	"/>
	<polygon class="st1" points="53.2,28.51 88.27,28.52 105.21,0.01 36.66,0.01 	"/>
	<polygon class="st1" points="205.29,28.51 240.36,28.52 257.3,0.01 188.75,0.01 	"/>
</g>
<g id="Blue_Trapazoid">
	<polygon class="st2" points="144.85,30.03 128.04,58.94 145.29,88.48 179.6,88.48 	"/>
	<polygon class="st2" points="34.75,58.45 51.56,29.54 34.31,0 0,0 	"/>
	<polygon class="st2" points="186.84,58.45 203.65,29.54 186.4,0 152.09,0 	"/>
</g>
<g id="White_Triangle">
</g>
</svg>
