<svg xmlns="http://www.w3.org/2000/svg" width="144.929" height="121.035" viewBox="0 0 144.929 121.035">
  <g id="left-quote" transform="translate(0 -7.858)">
    <g id="Group_1685" data-name="Group 1685" transform="translate(0 7.858)">
      <path id="Path_1404" data-name="Path 1404" d="M46.386,62.71a38.4,38.4,0,0,0-10.611-1.549,33.347,33.347,0,0,0-13.305,2.726c3.345-12.244,11.379-33.371,27.384-35.75a3.8,3.8,0,0,0,3.1-2.735l3.5-12.512A3.8,3.8,0,0,0,53.309,8.1a26.57,26.57,0,0,0-3.579-.243c-19.211,0-38.237,20.052-46.266,48.764C-1.248,73.466-2.63,98.791,8.978,114.73c6.5,8.919,15.973,13.682,28.169,14.158.05,0,.1,0,.149,0a33.718,33.718,0,0,0,9.09-66.181Z" transform="translate(0 -7.858)" fill="#f7f5f5"/>
      <path id="Path_1405" data-name="Path 1405" d="M115.281,78.633A33.8,33.8,0,0,0,95.01,62.71,38.4,38.4,0,0,0,84.4,61.161a33.355,33.355,0,0,0-13.307,2.726c3.345-12.244,11.379-33.371,27.386-35.75a3.8,3.8,0,0,0,3.1-2.735l3.5-12.512A3.8,3.8,0,0,0,101.935,8.1a26.536,26.536,0,0,0-3.579-.243c-19.211,0-38.237,20.052-46.267,48.764C47.378,73.466,46,98.791,57.606,114.733c6.495,8.918,15.973,13.682,28.167,14.157.05,0,.1,0,.151,0a33.718,33.718,0,0,0,29.358-50.26Z" transform="translate(25.298 -7.858)" fill="#f7f5f5"/>
    </g>
  </g>
</svg>
