<svg xmlns="http://www.w3.org/2000/svg" width="19.43" height="24.38" viewBox="0 0 19.43 24.38">
  <g id="_2720925" data-name="2720925" transform="translate(4.216) rotate(17)">
    <g id="Group_1275" data-name="Group 1275">
      <path id="Path_1253" data-name="Path 1253" d="M14.423,7.21a7.207,7.207,0,1,0-2.113,5.1A7.166,7.166,0,0,0,14.423,7.21ZM2.446,11.973a6.737,6.737,0,1,1,9.528,0A6.745,6.745,0,0,1,2.446,11.973Z" fill="#fff"/>
      <path id="Path_1254" data-name="Path 1254" d="M7.218,4.667,3.894,1.343A1.634,1.634,0,0,0,2.731.861c-.042,0-.083,0-.125.006l-.8-.8a.238.238,0,0,0-.336.336L2.067,1a1.643,1.643,0,0,0-.5.342l-.225.225a1.633,1.633,0,0,0-.341.5l-.6-.6a.238.238,0,0,0-.336.336l.8.8a1.641,1.641,0,0,0,.475,1.288L4.667,7.218a1.647,1.647,0,0,0,2.327,0l.224-.224a1.646,1.646,0,0,0,0-2.327ZM6.882,6.658l-.224.224A1.171,1.171,0,0,1,5,6.882L1.679,3.558a1.171,1.171,0,0,1,0-1.655L1.9,1.679a1.17,1.17,0,0,1,1.654,0L6.882,5a1.17,1.17,0,0,1,0,1.655Z" transform="translate(11.825 11.825)" fill="#fff"/>
      <path id="Path_1255" data-name="Path 1255" d="M10.063,1.727a5.895,5.895,0,1,0-8.336,8.336,5.895,5.895,0,0,0,8.336-8.336Zm-.336,8a5.417,5.417,0,1,1,0-7.664A5.425,5.425,0,0,1,9.726,9.726Z" transform="translate(1.315 1.315)" fill="#fff"/>
    </g>
  </g>
</svg>
