<svg xmlns="http://www.w3.org/2000/svg" width="487.889" height="654.899" viewBox="0 0 487.889 654.899"><defs><style>.a{fill:#fdb232;}.b{fill:#dd273e;}.c{fill:#9ad5f8;}.d{opacity:0.747;}.e{opacity:0.201;}.f{fill:#c4baba;}</style></defs><g transform="translate(103.705 779.992) rotate(-120)"><g transform="translate(160.092 327.357) rotate(-22)"><g transform="translate(0 0)"><path class="a" d="M0,54.4H128.28L96.689,0H32.423Z" transform="translate(0 112.359)"/><path class="b" d="M96.105,53.413,64.253,0,7.289,95.769,0,108.378H64.262Z" transform="translate(34.165 0)"/><path class="c" d="M81.824,83.8,31.843,0,0,54.965l31.591,54.4H96.937Z" transform="translate(101.059 57.393)"/></g></g><g class="d" transform="translate(63.881 366.229) rotate(-22)"><g class="e" transform="translate(0 0)"><path class="f" d="M81.824,25.563l-49.981,83.8L0,54.4,31.591,0H96.937Z" transform="translate(101.059 0)"/><path class="f" d="M0,0H128.28L96.689,54.4H32.423Z"/><path class="f" d="M96.105,54.965,64.253,108.378,7.289,12.609,0,0H64.262Z" transform="translate(34.165 58.38)"/></g></g><g class="d" transform="translate(255.967 288.621) rotate(-22)"><g class="e" transform="translate(0 0)"><path class="f" d="M81.824,25.563l-49.981,83.8L0,54.4,31.591,0H96.937Z" transform="translate(101.059 0)"/><path class="f" d="M0,0H128.28L96.689,54.4H32.423Z"/><path class="f" d="M96.105,54.965,64.253,108.378,7.289,12.609,0,0H64.262Z" transform="translate(34.165 58.38)"/></g></g><g class="d" transform="translate(0 208.119) rotate(-22)"><g class="e" transform="translate(0 0)"><path class="f" d="M81.824,83.8,31.843,0,0,54.965l31.591,54.4H96.937Z" transform="translate(101.059 57.393)"/><path class="f" d="M0,54.4H128.28L96.689,0H32.423Z" transform="translate(0 112.359)"/><path class="f" d="M96.105,53.413,64.253,0,7.289,95.769,0,108.378H64.262Z" transform="translate(34.165 0)"/></g></g><g class="d" transform="translate(192.087 130.511) rotate(-22)"><g class="e" transform="translate(0 0)"><path class="f" d="M81.824,83.8,31.843,0,0,54.965l31.591,54.4H96.937Z" transform="translate(101.059 57.393)"/><path class="f" d="M0,54.4H128.28L96.689,0H32.423Z" transform="translate(0 112.359)"/><path class="f" d="M96.105,53.413,64.253,0,7.289,95.769,0,108.378H64.262Z" transform="translate(34.165 0)"/></g></g><g class="d" transform="translate(96.211 169.247) rotate(-22)"><g class="e" transform="translate(0 0)"><path class="f" d="M81.824,25.563l-49.981,83.8L0,54.4,31.591,0H96.937Z" transform="translate(101.059 0)"/><path class="f" d="M0,0H128.28L96.689,54.4H32.423Z"/><path class="f" d="M96.105,54.965,64.253,108.378,7.289,12.609,0,0H64.262Z" transform="translate(34.165 58.38)"/></g></g><g class="d" transform="translate(319.847 446.73) rotate(-22)"><g class="e" transform="translate(0 0)"><path class="f" d="M81.824,83.8,31.843,0,0,54.965l31.591,54.4H96.937Z" transform="translate(101.059 57.393)"/><path class="f" d="M0,54.4H128.28L96.689,0H32.423Z" transform="translate(0 112.359)"/><path class="f" d="M96.105,53.413,64.253,0,7.289,95.769,0,108.378H64.262Z" transform="translate(34.165 0)"/></g></g><g class="d" transform="translate(223.972 485.466) rotate(-22)"><g class="e" transform="translate(0 0)"><path class="f" d="M81.824,25.563l-49.981,83.8L0,54.4,31.591,0H96.937Z" transform="translate(101.059 0)"/><path class="f" d="M0,0H128.28L96.689,54.4H32.423Z"/><path class="f" d="M96.105,54.965,64.253,108.378,7.289,12.609,0,0H64.262Z" transform="translate(34.165 58.38)"/></g></g><g class="d" transform="translate(351.876 253.237) rotate(-22)"><g class="e" transform="translate(0 0)"><path class="f" d="M81.824,83.8,31.843,0,0,54.965l31.591,54.4H96.937Z" transform="translate(101.059 57.393)"/><path class="f" d="M0,54.4H128.28L96.689,0H32.423Z" transform="translate(0 112.359)"/><path class="f" d="M96.105,53.413,64.253,0,7.289,95.769,0,108.378H64.262Z" transform="translate(34.165 0)"/></g></g><g class="d" transform="translate(419.319 410.485) rotate(-22)"><g class="e" transform="translate(0 0)"><path class="f" d="M81.824,25.563l-49.981,83.8L0,54.4,31.591,0H96.937Z" transform="translate(101.059 0)"/><path class="f" d="M0,0H128.28L96.689,54.4H32.423Z"/><path class="f" d="M96.105,54.965,64.253,108.378,7.289,12.609,0,0H64.262Z" transform="translate(34.165 58.38)"/></g></g></g></svg>