<svg xmlns="http://www.w3.org/2000/svg" width="234.058" height="258.479" viewBox="0 0 234.058 258.479">
  <g id="Group_1864" data-name="Group 1864" transform="translate(-87.37 -2709.448)">
    <g id="Group_341" data-name="Group 341" transform="translate(224.39 2793.792) rotate(180)">
      <path id="Path_14" data-name="Path 14" d="M0,24.526H57.836L43.593,0H14.619Z" transform="translate(0 59.819)" fill="#fdb232"/>
      <path id="Path_15" data-name="Path 15" d="M36.892,37.783,14.358,0,0,24.783,14.243,49.309H43.706Z" transform="translate(50.895 27.733)" fill="#9ad5f8"/>
      <path id="Path_16" data-name="Path 16" d="M43.331,24.082,28.969,0,3.286,43.179,0,48.864H28.974Z" transform="translate(10.958)" fill="#dd273e"/>
    </g>
    <g id="Group_342" data-name="Group 342" transform="translate(211.949 2967.927) rotate(180)">
      <path id="Path_14-2" data-name="Path 14" d="M0,24.526H57.836L43.593,0H14.619Z" transform="translate(0 48.864)" fill="#fdb232"/>
      <path id="Path_15-2" data-name="Path 15" d="M36.892,37.783,14.358,0,0,24.783,14.243,49.309H43.706Z" transform="translate(50.895 24.081)" fill="#9ad5f8"/>
      <path id="Path_16-2" data-name="Path 16" d="M43.331,24.082,28.969,0,3.286,43.179,0,48.864H28.974Z" transform="translate(14.609)" fill="#dd273e"/>
    </g>
    <g id="Group_343" data-name="Group 343" transform="translate(151.704 2804.765)">
      <path id="Path_14-3" data-name="Path 14" d="M0,1154.176H57.836L43.593,1129.65H14.619Z" transform="translate(0 -1080.786)" fill="#fdb232" stroke="#fff" stroke-width="3"/>
      <path id="Path_15-3" data-name="Path 15" d="M1044.672,594.5l-22.534-37.783L1007.78,581.5l14.243,24.526h29.463Z" transform="translate(-964.188 -532.638)" fill="#9ad5f8" stroke="#fff" stroke-width="3"/>
      <path id="Path_16-3" data-name="Path 16" d="M381.291,24.082,366.928,0,341.246,43.179l-3.286,5.686h28.974Z" transform="translate(-323.351)" fill="#dd273e" stroke="#fff" stroke-width="3"/>
    </g>
    <g id="Group_344" data-name="Group 344" transform="translate(177.298 2890.201) rotate(180)">
      <path id="Path_14-4" data-name="Path 14" d="M0,24.526H57.836L43.593,0H14.619Z" transform="translate(0 48.864)" fill="#fdb232" stroke="#fff" stroke-width="3"/>
      <path id="Path_15-4" data-name="Path 15" d="M36.892,37.783,14.358,0,0,24.783,14.243,49.309H43.706Z" transform="translate(43.592 24.081)" fill="#9ad5f8" stroke="#fff" stroke-width="3"/>
      <path id="Path_16-4" data-name="Path 16" d="M43.331,24.082,28.969,0,3.286,43.179,0,48.864H28.974Z" transform="translate(14.609)" fill="#dd273e" stroke="#fff" stroke-width="3"/>
    </g>
    <g id="Group_345" data-name="Group 345" transform="translate(90.023 2735.947)">
      <path id="Path_14-5" data-name="Path 14" d="M0,1154.176H57.836L43.593,1129.65H14.619Z" transform="translate(0 -1080.786)" fill="#fdb232" stroke="#fff" stroke-width="3"/>
      <path id="Path_15-5" data-name="Path 15" d="M1044.672,594.5l-22.534-37.783L1007.78,581.5l14.243,24.526h29.463Z" transform="translate(-964.188 -532.638)" fill="#9ad5f8" stroke="#fff" stroke-width="3"/>
      <path id="Path_16-5" data-name="Path 16" d="M381.291,24.082,366.928,0,341.246,43.179l-3.286,5.686h28.974Z" transform="translate(-323.351 0)" fill="#dd273e" stroke="#fff" stroke-width="3"/>
    </g>
    <g id="Group_346" data-name="Group 346" transform="translate(188.544 2879.965)">
      <path id="Path_14-6" data-name="Path 14" d="M0,1154.176H57.836L43.593,1129.65H14.619Z" transform="translate(0 -1073.483)" fill="#fdb232"/>
      <path id="Path_15-6" data-name="Path 15" d="M1044.672,594.5l-22.534-37.783L1007.78,581.5l14.243,24.526h29.463Z" transform="translate(-956.885 -532.638)" fill="#9ad5f8"/>
      <path id="Path_16-6" data-name="Path 16" d="M381.291,24.082,366.928,0,341.246,43.179l-3.286,5.686h28.974Z" transform="translate(-316.048 0)" fill="#dd273e"/>
    </g>
    <g id="Group_350" data-name="Group 350" transform="translate(243.931 2809.337)">
      <path id="Path_14-7" data-name="Path 14" d="M0,21.882H51.6L38.895,0H13.044Z" transform="translate(0 43.598)" fill="#fdb232"/>
      <path id="Path_15-7" data-name="Path 15" d="M32.915,33.711,12.81,0,0,22.112,12.708,43.994H39Z" transform="translate(38.502 21.486)" fill="#9ad5f8"/>
      <path id="Path_16-7" data-name="Path 16" d="M38.661,21.486,25.846,0,2.932,38.525,0,43.6H25.851Z" transform="translate(13.035)" fill="#dd273e"/>
    </g>
    <g id="Group_351" data-name="Group 351" transform="translate(277.752 2874.813) rotate(180)">
      <path id="Path_14-8" data-name="Path 14" d="M0,21.882H51.6L38.895,0H13.044Z" transform="translate(0 43.598)" fill="#fdb232"/>
      <path id="Path_15-8" data-name="Path 15" d="M32.915,33.711,12.81,0,0,22.112,12.708,43.994H39Z" transform="translate(38.502 21.486)" fill="#9ad5f8"/>
      <path id="Path_16-8" data-name="Path 16" d="M38.661,21.486,25.846,0,2.932,38.525,0,43.6H25.851Z" transform="translate(13.035)" fill="#dd273e"/>
    </g>
    <g id="Group_352" data-name="Group 352" transform="translate(316.501 2805.858) rotate(180)">
      <path id="Path_14-9" data-name="Path 14" d="M0,21.882H51.6L38.895,0H13.044Z" transform="translate(0 43.598)" fill="#fdb232"/>
      <path id="Path_15-9" data-name="Path 15" d="M32.915,33.711,12.81,0,0,22.112,12.708,43.994H39Z" transform="translate(38.502 21.486)" fill="#9ad5f8"/>
      <path id="Path_16-9" data-name="Path 16" d="M38.661,21.486,25.846,0,2.932,38.525,0,43.6H25.851Z" transform="translate(13.035)" fill="#dd273e"/>
    </g>
  </g>
</svg>
