<?xml version="1.0" encoding="utf-8"?>
<!-- Generator: Adobe Illustrator 25.2.1, SVG Export Plug-In . SVG Version: 6.00 Build 0)  -->
<svg version="1.1" id="Layer_1" xmlns="http://www.w3.org/2000/svg" xmlns:xlink="http://www.w3.org/1999/xlink" x="0px" y="0px"
	 viewBox="0 0 2200 1191.7" style="enable-background:new 0 0 2200 1191.7;" xml:space="preserve">
<style type="text/css">
	.st0{fill:#F6F4F4;}
	.st1{fill:#F6F4F4;stroke:#FFFFFF;stroke-width:5;}
	.st2{fill:#DB2A42;}
	.st3{fill:#9AD5F8;}
	.st4{fill:#FDB232;}
</style>
<g id="Group_1774" transform="translate(9 0)">
	<g id="Group_1756" transform="translate(395.877 0)">
		<path id="Path_14-2" class="st0" d="M1157.49,33.69H941.62l53.16,91.54h108.14L1157.49,33.69z"/>
		<path id="Path_15-2" class="st0" d="M829.83,257.16l84.11,141.02l53.59-92.5l-53.16-91.54H804.39L829.83,257.16z"/>
		<path id="Path_16" class="st0" d="M954.86,411.81l53.62,89.88l95.85-161.16l12.27-21.22h-108.14L954.86,411.81z"/>
		<path id="Path_1406" class="st0" d="M638.35,374.9l53.62,89.88l95.85-161.16l12.27-21.22H691.94L638.35,374.9z"/>
		<path id="Path_14-3" class="st1" d="M1111.05,877.72H895.18l53.16,91.54h108.14L1111.05,877.72z"/>
		<path id="Path_16-2" class="st1" d="M894.79,1061.76l53.62,89.88l95.85-161.16l12.27-21.22H948.38L894.79,1061.76z"/>
		<g id="Group_1367" transform="translate(487.014 354.943)">
			<path id="Path_14-4" class="st1" d="M399.18,461.63h215.87l-53.16-91.54H453.74L399.18,461.63z"/>
			<g transform="matrix(1, 0, 0, 1, -891.89, -354.94)">
				<path id="Path_15-4" class="st2" d="M1591.47,773.56l-84.11-141.02l-53.59,92.5l53.16,91.54h109.97L1591.47,773.56z"/>
			</g>
			<path id="Path_16-3" class="st1" d="M615.44,277.59l-53.61-89.88l-95.86,161.16l-12.27,21.22h108.14L615.44,277.59z"/>
		</g>
		<g id="Group_1368" transform="translate(553.636 577.333) rotate(180)">
			<path id="Path_14-5" class="st1" d="M-428.08-10.28h215.87l-53.16-91.54h-108.14L-428.08-10.28z"/>
			<path id="Path_15-5" class="st1" d="M-127.68-53.29l-84.11-141.02l-53.59,92.5l53.16,91.54h109.97L-127.68-53.29z"/>
			<path id="Path_16-4" class="st1" d="M-211.82-194.32l-53.62-89.88l-95.85,161.16l-12.27,21.22h108.14L-211.82-194.32z"/>
		</g>
		<g id="Group_1369" transform="translate(112.797 175.807)">
			<path id="Path_14-6" class="st1" d="M236.8,383.9h215.87l-53.16-91.54H291.37L236.8,383.9z"/>
			<path id="Path_15-6" class="st1" d="M843.58,340.88l-84.11-141.02l-53.59,92.5l53.16,91.54h109.97L843.58,340.88z"/>
			<path id="Path_16-5" class="st1" d="M759.43,199.86l-53.61-89.88l-95.86,161.16l-12.27,21.22h108.14L759.43,199.86z"/>
		</g>
		<path id="Path_14-7" class="st1" d="M1023.69,1106.12h215.87l-53.16-91.54h-108.14L1023.69,1106.12z"/>
		<path id="Path_15-7" class="st1" d="M1351.36,1035.85l-84.11-141.02l-53.59,92.5l53.16,91.54h109.97L1351.36,1035.85z"/>
		<path id="Path_16-6" class="st1" d="M1267.21,894.82l-53.61-89.88l-95.86,161.16l-12.27,21.22h108.14L1267.21,894.82z"/>
		<path id="Path_14-8" class="st1" d="M1487.77,819.43h192.61l-47.43-81.68h-96.49L1487.77,819.43z"/>
		<path id="Path_16-7" class="st1" d="M1680.72,655.22l-47.83-80.2l-85.53,143.79l-10.94,18.93h96.49L1680.72,655.22z"/>
		<path id="Path_14-9" class="st1" d="M1356.66,559.69h-192.61l47.43,81.68h96.49L1356.66,559.69z"/>
		<path id="Path_15-8" class="st1" d="M1090.1,598.08l75.04,125.82l47.81-82.53l-47.43-81.68h-98.12L1090.1,598.08z"/>
		<path id="Path_16-8" class="st1" d="M1163.71,723.9l47.83,80.2l85.53-143.79l10.94-18.93h-96.49L1163.71,723.9z"/>
		<path id="Path_14-10" class="st1" d="M1501.29,302.32h-192.61l47.43,81.68h96.49L1501.29,302.32z"/>
		<path id="Path_15-9" class="st1" d="M1234.72,340.7l75.04,125.82l47.81-82.53l-47.43-81.68h-98.12L1234.72,340.7z"/>
		<path id="Path_16-9" class="st1" d="M1308.34,466.53l47.83,80.2l85.53-143.79l10.94-18.93h-96.49L1308.34,466.53z"/>
		<path id="Path_15-10" class="st1" d="M1754.33,781.05l-75.04-125.82l-47.81,82.53l47.43,81.68h98.12L1754.33,781.05z"/>
		<g id="Group_1757" transform="translate(0 377.524)">
			<path id="Path_14-11" class="st1" d="M187.86,471.43h215.87l-53.16-91.54H242.42L187.86,471.43z"/>
			<path id="Path_15-11" class="st1" d="M488.26,428.41l-84.11-141.02l-53.59,92.5l53.16,91.54h109.97L488.26,428.41z"/>
			<path id="Path_16-10" class="st1" d="M404.12,287.39l-53.61-89.88l-95.86,161.16l-12.27,21.22h108.14L404.12,287.39z"/>
		</g>
		<path id="Path_1408" class="st1" d="M611.94,920.74l84.11,141.02l53.59-92.5l-53.16-91.54H586.5L611.94,920.74z"/>
	</g>
	<g transform="matrix(1, 0, 0, 1, -9, 0)">
		<path id="Path_1409-2" class="st3" d="M783.16,408.01l166.59,279.33l106.14-183.22l-105.3-181.32H732.78L783.16,408.01z"/>
	</g>
	<g id="Group_1759" transform="translate(0 249.302)">
		<g transform="matrix(1, 0, 0, 1, -9, -249.3)">
			<path id="Path_14-12" class="st4" d="M25.08,722.42h249.5l-61.44-105.8H88.15L25.08,722.42z"/>
		</g>
		<path id="Path_15-12" class="st1" d="M479.31,372.77L395.2,231.75l-53.59,92.5l53.16,91.54h109.97L479.31,372.77z"/>
		<path id="Path_16-11" class="st1" d="M309.04,231.75l-53.61-89.88l-95.86,161.16l-12.27,21.22h108.14L309.04,231.75z"/>
	</g>
</g>
</svg>
