<svg xmlns="http://www.w3.org/2000/svg" xmlns:xlink="http://www.w3.org/1999/xlink" width="619.024" height="905.548" viewBox="0 0 619.024 905.548"><defs><style>.a,.b{fill:#f6f4f4;}.b{stroke:#fff;}.b,.c,.d{stroke-width:5px;}.c,.d{fill:#fff;}.c{stroke:#f7f5f5;}.d{stroke:#f6f4f4;}.e{filter:url(#i);}.f{filter:url(#g);}.g{filter:url(#e);}.h{filter:url(#c);}.i{filter:url(#a);}</style><filter id="a" x="324.937" y="697.222" width="164.938" height="183.774" filterUnits="userSpaceOnUse"><feOffset dy="3" input="SourceAlpha"/><feGaussianBlur stdDeviation="3" result="b"/><feFlood flood-opacity="0.161"/><feComposite operator="in" in2="b"/><feComposite in="SourceGraphic"/></filter><filter id="c" x="188.161" y="196.319" width="212.444" height="100.454" filterUnits="userSpaceOnUse"><feOffset dy="3" input="SourceAlpha"/><feGaussianBlur stdDeviation="3" result="d"/><feFlood flood-opacity="0.161"/><feComposite operator="in" in2="d"/><feComposite in="SourceGraphic"/></filter><filter id="e" x="244.769" y="18.552" width="163.678" height="182.28" filterUnits="userSpaceOnUse"><feOffset dy="3" input="SourceAlpha"/><feGaussianBlur stdDeviation="3" result="f"/><feFlood flood-opacity="0.161"/><feComposite operator="in" in2="f"/><feComposite in="SourceGraphic"/></filter><filter id="g" x="153.828" y="805.094" width="212.444" height="100.454" filterUnits="userSpaceOnUse"><feOffset dy="3" input="SourceAlpha"/><feGaussianBlur stdDeviation="3" result="h"/><feFlood flood-opacity="0.161"/><feComposite operator="in" in2="h"/><feComposite in="SourceGraphic"/></filter><filter id="i" x="190.668" y="603.985" width="163.678" height="182.28" filterUnits="userSpaceOnUse"><feOffset dy="3" input="SourceAlpha"/><feGaussianBlur stdDeviation="3" result="j"/><feFlood flood-opacity="0.161"/><feComposite operator="in" in2="j"/><feComposite in="SourceGraphic"/></filter></defs><g transform="translate(614.642 893.548) rotate(180)"><g transform="translate(0 0)"><g transform="translate(451.814 283.563) rotate(180)"><path class="a" d="M0,82.454H194.444L146.558,0H49.149Z" transform="translate(0 201.109)"/><g class="i" transform="matrix(1, 0, 0, 1, -162.83, -609.98)"><path class="a" d="M124.028,127.025,48.27,0,0,83.319l47.885,82.455h99.053Z" transform="translate(333.94 703.22)"/></g><path class="a" d="M145.678,80.961,97.391,0,11.048,145.165,0,164.28H97.409Z" transform="translate(36.84)"/></g><g transform="translate(417.481 868.996) rotate(180)"><g class="h" transform="matrix(1, 0, 0, 1, -197.16, -24.55)"><path class="a" d="M0,82.454H194.444L146.558,0H49.149Z" transform="translate(197.16 202.32)"/></g><path class="a" d="M124.028,127.025,48.27,0,0,83.319l47.885,82.455h99.053Z" transform="translate(178.601 80.961)"/><g class="g" transform="matrix(1, 0, 0, 1, -197.16, -24.55)"><path class="a" d="M145.678,80.961,97.391,0,11.048,145.165,0,164.28H97.409Z" transform="translate(253.77 24.55)"/></g></g><g transform="translate(293.495 607.685) rotate(180)"><path class="b" d="M0,82.454H194.444L146.558,0H49.149Z" transform="translate(0 164.28)"/><path class="b" d="M124.028,127.025,48.27,0,0,83.319l47.885,82.455h99.053Z" transform="translate(146.556 80.961)"/><path class="b" d="M145.678,80.961,97.391,0,11.048,145.165,0,164.28H97.409Z" transform="translate(49.116)"/></g><g transform="translate(0.079 89.087)"><path class="b" d="M0,1212.1H194.444l-47.886-82.454H49.149Z" transform="translate(0 -965.369)"/><path class="b" d="M1131.808,683.745,1056.05,556.72l-48.27,83.319,47.886,82.455h99.053Z" transform="translate(-861.223 -475.759)"/><path class="b" d="M483.638,80.961,435.351,0,349.008,145.165,337.96,164.28h97.409Z" transform="translate(-288.844 0)"/></g><g transform="translate(207.449 320.455)"><path class="c" d="M0,1212.1H194.444l-47.886-82.454H49.149Z" transform="translate(0 -965.369)"/><path class="d" d="M1131.808,683.745,1056.05,556.72l-48.27,83.319,47.886,82.455h99.053Z" transform="translate(-861.223 -475.759)"/><path class="c" d="M483.638,80.961,435.351,0,349.008,145.165,337.96,164.28h97.409Z" transform="translate(-288.844)"/></g><g transform="translate(296.595 622.261)"><path class="a" d="M0,1212.1H194.444l-47.886-82.454H49.149Z" transform="translate(0 -940.817)"/><path class="a" d="M1131.808,683.745,1056.05,556.72l-48.27,83.319,47.886,82.455h99.053Z" transform="translate(-836.671 -475.759)"/><path class="a" d="M483.638,80.961,435.351,0,349.008,145.165,337.96,164.28h97.409Z" transform="translate(-264.292 0)"/></g></g><g transform="translate(451.814 283.563) rotate(180)"><g class="f" transform="matrix(1, 0, 0, 1, -162.83, -609.98)"><path class="a" d="M0,82.454H194.444L146.558,0H49.149Z" transform="translate(162.83 811.09)"/></g><g class="e" transform="matrix(1, 0, 0, 1, -162.83, -609.98)"><path class="a" d="M145.678,80.961,97.391,0,11.048,145.165,0,164.28H97.409Z" transform="translate(199.67 609.98)"/></g></g></g></svg>