<svg xmlns="http://www.w3.org/2000/svg" width="599.475" height="534.243" viewBox="0 0 599.475 534.243"><defs><style>.a{fill:#fdb232;}.b{fill:#dd273e;}.c{fill:#9ad5f8;}.d{opacity:0.747;}.e{opacity:0.201;}.f{fill:#c4baba;}</style></defs><g transform="translate(-31.02 -61.138)"><g transform="translate(156.767 301.682) rotate(-22)"><g transform="translate(0 0)"><path class="a" d="M0,53.27H125.617L94.681,0H31.75Z" transform="translate(0 110.025)"/><path class="b" d="M94.109,52.3,62.919,0,7.137,93.78,0,106.128H62.927Z" transform="translate(33.456 0)"/><path class="c" d="M80.125,82.061,31.182,0,0,53.824l30.935,53.27H94.924Z" transform="translate(98.96 56.202)"/></g></g><g class="d" transform="translate(62.554 339.747) rotate(-22)"><g class="e" transform="translate(0 0)"><path class="f" d="M80.125,25.032,31.182,107.093,0,53.27,30.935,0H94.924Z" transform="translate(98.96 0)"/><path class="f" d="M0,0H125.617L94.681,53.27H31.75Z"/><path class="f" d="M94.109,53.824l-31.191,52.3L7.137,12.347,0,0H62.927Z" transform="translate(33.456 57.167)"/></g></g><g class="d" transform="translate(250.651 263.751) rotate(-22)"><g class="e" transform="translate(0 0)"><path class="f" d="M80.125,25.032,31.182,107.093,0,53.27,30.935,0H94.924Z" transform="translate(98.96 0)"/><path class="f" d="M0,0H125.617L94.681,53.27H31.75Z"/><path class="f" d="M94.109,53.824l-31.191,52.3L7.137,12.347,0,0H62.927Z" transform="translate(33.456 57.167)"/></g></g><g class="d" transform="translate(0 184.921) rotate(-22)"><g class="e" transform="translate(0 0)"><path class="f" d="M80.125,82.061,31.182,0,0,53.824l30.935,53.27H94.924Z" transform="translate(98.96 56.202)"/><path class="f" d="M0,53.27H125.617L94.681,0H31.75Z" transform="translate(0 110.025)"/><path class="f" d="M94.109,52.3,62.919,0,7.137,93.78,0,106.128H62.927Z" transform="translate(33.456 0)"/></g></g><g class="d" transform="translate(188.098 108.924) rotate(-22)"><g class="e" transform="translate(0 0)"><path class="f" d="M80.125,82.061,31.182,0,0,53.824l30.935,53.27H94.924Z" transform="translate(98.96 56.202)"/><path class="f" d="M0,53.27H125.617L94.681,0H31.75Z" transform="translate(0 110.025)"/><path class="f" d="M94.109,52.3,62.919,0,7.137,93.78,0,106.128H62.927Z" transform="translate(33.456 0)"/></g></g><g class="d" transform="translate(94.214 146.856) rotate(-22)"><g class="e" transform="translate(0 0)"><path class="f" d="M80.125,25.032,31.182,107.093,0,53.27,30.935,0H94.924Z" transform="translate(98.96 0)"/><path class="f" d="M0,0H125.617L94.681,53.27H31.75Z"/><path class="f" d="M94.109,53.824l-31.191,52.3L7.137,12.347,0,0H62.927Z" transform="translate(33.456 57.167)"/></g></g><g class="d" transform="translate(313.205 418.577) rotate(-22)"><g class="e" transform="translate(0 0)"><path class="f" d="M80.125,82.061,31.182,0,0,53.824l30.935,53.27H94.924Z" transform="translate(98.96 56.202)"/><path class="f" d="M0,53.27H125.617L94.681,0H31.75Z" transform="translate(0 110.025)"/><path class="f" d="M94.109,52.3,62.919,0,7.137,93.78,0,106.128H62.927Z" transform="translate(33.456 0)"/></g></g><g class="d" transform="translate(219.321 456.509) rotate(-22)"><g class="e" transform="translate(0 0)"><path class="f" d="M80.125,25.032,31.182,107.093,0,53.27,30.935,0H94.924Z" transform="translate(98.96 0)"/><path class="f" d="M0,0H125.617L94.681,53.27H31.75Z"/><path class="f" d="M94.109,53.824l-31.191,52.3L7.137,12.347,0,0H62.927Z" transform="translate(33.456 57.167)"/></g></g><g class="d" transform="translate(344.569 229.101) rotate(-22)"><g class="e" transform="translate(0 0)"><path class="f" d="M80.125,82.061,31.182,0,0,53.824l30.935,53.27H94.924Z" transform="translate(98.96 56.202)"/><path class="f" d="M0,53.27H125.617L94.681,0H31.75Z" transform="translate(0 110.025)"/><path class="f" d="M94.109,52.3,62.919,0,7.137,93.78,0,106.128H62.927Z" transform="translate(33.456 0)"/></g></g><g class="d" transform="translate(410.611 383.084) rotate(-22)"><g class="e" transform="translate(0 0)"><path class="f" d="M80.125,25.032,31.182,107.093,0,53.27,30.935,0H94.924Z" transform="translate(98.96 0)"/><path class="f" d="M0,0H125.617L94.681,53.27H31.75Z"/><path class="f" d="M94.109,53.824l-31.191,52.3L7.137,12.347,0,0H62.927Z" transform="translate(33.456 57.167)"/></g></g></g></svg>