<svg xmlns="http://www.w3.org/2000/svg" width="205.478" height="191.092" viewBox="0 0 205.478 191.092">
  <g id="Group_1399" data-name="Group 1399" transform="matrix(0.799, 0.602, -0.602, 0.799, 70.691, -61.474)">
    <g id="Group_13" data-name="Group 13" transform="translate(75.67 128.1) rotate(-22)">
      <g id="Group_1" data-name="Group 1" transform="translate(0 0)">
        <path id="Path_113" data-name="Path 113" d="M0,25.713H60.634L45.7,0H15.325Z" transform="translate(0 53.108)" fill="#fdb232"/>
        <path id="Path_114" data-name="Path 114" d="M45.426,25.246,30.37,0,3.445,45.267,0,51.227H30.374Z" transform="translate(16.149 0)" fill="#dd273e"/>
        <path id="Asset_3" data-name="Asset 3" d="M38.675,39.61,15.051,0,0,25.98,14.932,51.693H45.819Z" transform="translate(47.767 27.128)" fill="#9ad5f8"/>
      </g>
    </g>
    <g id="Group_25" data-name="Group 25" transform="translate(30.194 146.473) rotate(-22)" opacity="0.747">
      <g id="Group_3" data-name="Group 3" transform="translate(0 0)" opacity="0.201">
        <path id="Asset_3-2" data-name="Asset 3" d="M38.675,12.083,15.051,51.693,0,25.713,14.932,0H45.819Z" transform="translate(47.767 0)" fill="#c4baba"/>
        <path id="Path_2" data-name="Path 2" d="M0,0H60.634L45.7,25.713H15.325Z" fill="#c4baba"/>
        <path id="Path_1" data-name="Path 1" d="M45.426,25.98,30.37,51.227,3.445,5.96,0,0H30.374Z" transform="translate(16.149 27.594)" fill="#c4baba"/>
      </g>
    </g>
    <g id="Group_26" data-name="Group 26" transform="translate(120.986 109.791) rotate(-22)" opacity="0.747">
      <g id="Group_3-2" data-name="Group 3" transform="translate(0 0)" opacity="0.201">
        <path id="Asset_3-3" data-name="Asset 3" d="M38.675,12.083,15.051,51.693,0,25.713,14.932,0H45.819Z" transform="translate(47.767 0)" fill="#c4baba"/>
        <path id="Path_2-2" data-name="Path 2" d="M0,0H60.634L45.7,25.713H15.325Z" fill="#c4baba"/>
        <path id="Path_1-2" data-name="Path 1" d="M45.426,25.98,30.37,51.227,3.445,5.96,0,0H30.374Z" transform="translate(16.149 27.594)" fill="#c4baba"/>
      </g>
    </g>
    <g id="Group_27" data-name="Group 27" transform="translate(0 71.74) rotate(-22)" opacity="0.747">
      <g id="Group_3-3" data-name="Group 3" transform="translate(0 0)" opacity="0.201">
        <path id="Asset_3-4" data-name="Asset 3" d="M38.675,39.61,15.051,0,0,25.98,14.932,51.693H45.819Z" transform="translate(47.767 27.128)" fill="#c4baba"/>
        <path id="Path_2-3" data-name="Path 2" d="M0,25.713H60.634L45.7,0H15.325Z" transform="translate(0 53.108)" fill="#c4baba"/>
        <path id="Path_1-3" data-name="Path 1" d="M45.426,25.246,30.37,0,3.445,45.267,0,51.227H30.374Z" transform="translate(16.149 0)" fill="#c4baba"/>
      </g>
    </g>
    <g id="Group_28" data-name="Group 28" transform="translate(90.793 35.058) rotate(-22)" opacity="0.747">
      <g id="Group_3-4" data-name="Group 3" transform="translate(0 0)" opacity="0.201">
        <path id="Asset_3-5" data-name="Asset 3" d="M38.675,39.61,15.051,0,0,25.98,14.932,51.693H45.819Z" transform="translate(47.767 27.128)" fill="#c4baba"/>
        <path id="Path_2-4" data-name="Path 2" d="M0,25.713H60.634L45.7,0H15.325Z" transform="translate(0 53.108)" fill="#c4baba"/>
        <path id="Path_1-4" data-name="Path 1" d="M45.426,25.246,30.37,0,3.445,45.267,0,51.227H30.374Z" transform="translate(16.149 0)" fill="#c4baba"/>
      </g>
    </g>
    <g id="Group_29" data-name="Group 29" transform="translate(45.476 53.367) rotate(-22)" opacity="0.747">
      <g id="Group_3-5" data-name="Group 3" transform="translate(0 0)" opacity="0.201">
        <path id="Asset_3-6" data-name="Asset 3" d="M38.675,12.083,15.051,51.693,0,25.713,14.932,0H45.819Z" transform="translate(47.767 0)" fill="#c4baba"/>
        <path id="Path_2-5" data-name="Path 2" d="M0,0H60.634L45.7,25.713H15.325Z" fill="#c4baba"/>
        <path id="Path_1-5" data-name="Path 1" d="M45.426,25.98,30.37,51.227,3.445,5.96,0,0H30.374Z" transform="translate(16.149 27.594)" fill="#c4baba"/>
      </g>
    </g>
  </g>
</svg>
