<svg xmlns="http://www.w3.org/2000/svg" width="701.898" height="554.31" viewBox="0 0 701.898 554.31">
  <g id="Group_1399" data-name="Group 1399" transform="translate(206.042 -193.154) rotate(22)">
    <g id="Group_13" data-name="Group 13" transform="translate(192.158 330.011) rotate(-22)">
      <g id="Group_1" data-name="Group 1" transform="translate(0 0)">
        <path id="Path_113" data-name="Path 113" d="M0,58.956H139.025L104.788,0H35.139Z" transform="translate(0 121.77)" fill="#fdb232"/>
        <path id="Path_114" data-name="Path 114" d="M104.155,57.887,69.635,0,7.9,103.791,0,117.456H69.645Z" transform="translate(37.027 0)" fill="#dd273e"/>
        <path id="Asset_3" data-name="Asset 3" d="M88.678,90.821,34.511,0,0,59.569l34.238,58.956h70.819Z" transform="translate(109.524 62.201)" fill="#9ad5f8"/>
      </g>
    </g>
    <g id="Group_25" data-name="Group 25" transform="translate(-19.406 415.488) rotate(-22)" opacity="0.747">
      <g id="Group_3" data-name="Group 3" transform="translate(0 0)" opacity="0.201">
        <path id="Asset_3-2" data-name="Asset 3" d="M88.678,27.7,34.511,118.525,0,58.956,34.238,0h70.819Z" transform="translate(225.243 0)" fill="#c4baba"/>
        <path id="Path_2" data-name="Path 2" d="M0,0H139.025L104.788,58.956H35.139Z" transform="translate(0 0)" fill="#c4baba"/>
        <path id="Path_1" data-name="Path 1" d="M104.155,59.569l-34.52,57.887L7.9,13.665,0,0H69.645Z" transform="translate(152.747 63.27)" fill="#c4baba"/>
      </g>
    </g>
    <g id="Group_26" data-name="Group 26" transform="translate(296.064 288.031) rotate(-22)" opacity="0.747">
      <g id="Group_3-2" data-name="Group 3" transform="translate(0 0)" opacity="0.201">
        <path id="Asset_3-3" data-name="Asset 3" d="M88.678,27.7,34.511,118.525,0,58.956,34.238,0h70.819Z" transform="translate(109.524 0)" fill="#c4baba"/>
        <path id="Path_2-2" data-name="Path 2" d="M0,0H139.025L104.788,58.956H35.139Z" fill="#c4baba"/>
        <path id="Path_1-2" data-name="Path 1" d="M104.155,59.569l-34.52,57.887L7.9,13.665,0,0H69.645Z" transform="translate(37.027 63.27)" fill="#c4baba"/>
      </g>
    </g>
    <g id="Group_27" data-name="Group 27" transform="translate(-118.682 256.274) rotate(-22)" opacity="0.747">
      <g id="Group_3-3" data-name="Group 3" transform="translate(0 0)" opacity="0.201">
        <path id="Asset_3-4" data-name="Asset 3" d="M88.678,90.821,34.511,0,0,59.569l34.238,58.956h70.819Z" transform="translate(257.648 62.201)" fill="#c4baba"/>
        <path id="Path_2-3" data-name="Path 2" d="M0,58.956H139.025L104.788,0H35.139Z" transform="translate(148.125 121.77)" fill="#c4baba"/>
        <path id="Path_1-3" data-name="Path 1" d="M104.155,57.887,69.635,0,7.9,103.791,0,117.456H69.645Z" transform="translate(0 0)" fill="#c4baba"/>
      </g>
    </g>
    <g id="Group_28" data-name="Group 28" transform="translate(226.833 116.677) rotate(-22)" opacity="0.747">
      <g id="Group_3-4" data-name="Group 3" transform="translate(0 0)" opacity="0.201">
        <path id="Asset_3-5" data-name="Asset 3" d="M88.678,90.821,34.511,0,0,59.569l34.238,58.956h70.819Z" transform="translate(109.524 62.201)" fill="#c4baba"/>
        <path id="Path_2-4" data-name="Path 2" d="M0,58.956H139.025L104.788,0H35.139Z" transform="translate(0 121.77)" fill="#c4baba"/>
        <path id="Path_1-4" data-name="Path 1" d="M104.155,57.887,69.635,0,7.9,103.791,0,117.456H69.645Z" transform="translate(37.027 0)" fill="#c4baba"/>
      </g>
    </g>
    <g id="Group_29" data-name="Group 29" transform="translate(122.927 158.658) rotate(-22)" opacity="0.747">
      <g id="Group_3-5" data-name="Group 3" transform="translate(0 0)" opacity="0.201">
        <path id="Asset_3-6" data-name="Asset 3" d="M88.678,27.7,34.511,118.525,0,58.956,34.238,0h70.819Z" transform="translate(109.524 0)" fill="#c4baba"/>
        <path id="Path_2-5" data-name="Path 2" d="M0,0H139.025L104.788,58.956H35.139Z" fill="#c4baba"/>
        <path id="Path_1-5" data-name="Path 1" d="M104.155,59.569l-34.52,57.887L7.9,13.665,0,0H69.645Z" transform="translate(37.027 63.27)" fill="#c4baba"/>
      </g>
    </g>
    <g id="Group_252" data-name="Group 252" transform="translate(400.006 249.683) rotate(-22)" opacity="0.747">
      <g id="Group_3-6" data-name="Group 3" transform="translate(0 0)" opacity="0.201">
        <path id="Asset_3-7" data-name="Asset 3" d="M88.678,90.821,34.511,0,0,59.569l34.238,58.956h70.819Z" transform="translate(109.524 62.201)" fill="#c4baba"/>
        <path id="Path_2-6" data-name="Path 2" d="M0,58.956H139.025L104.788,0H35.139Z" transform="translate(0 121.77)" fill="#c4baba"/>
        <path id="Path_1-6" data-name="Path 1" d="M104.155,57.887,69.635,0,7.9,103.791,0,117.456H69.645Z" transform="translate(37.027 0)" fill="#c4baba"/>
      </g>
    </g>
    <g id="Group_253" data-name="Group 253" transform="translate(473.098 420.102) rotate(-22)" opacity="0.747">
      <g id="Group_3-7" data-name="Group 3" transform="translate(0 0)" opacity="0.201">
        <path id="Asset_3-8" data-name="Asset 3" d="M88.678,27.7,34.511,118.525,0,58.956,34.238,0h70.819Z" transform="translate(109.524 0)" fill="#c4baba"/>
        <path id="Path_2-7" data-name="Path 2" d="M0,0H139.025L104.788,58.956H35.139Z" fill="#c4baba"/>
        <path id="Path_1-7" data-name="Path 1" d="M104.155,59.569l-34.52,57.887L7.9,13.665,0,0H69.645Z" transform="translate(37.027 63.27)" fill="#c4baba"/>
      </g>
    </g>
  </g>
</svg>
