<svg xmlns="http://www.w3.org/2000/svg" width="668.696" height="751.176" viewBox="0 0 668.696 751.176"><defs><style>.a{fill:#fdb232;}.b{fill:#dd273e;}.c{fill:#9ad5f8;}.d{opacity:0.747;}.e{opacity:0.201;}.f{fill:#c4baba;}</style></defs><g transform="matrix(-0.866, -0.5, 0.5, -0.866, 497.613, 981.553)"><g transform="translate(213.44 417.669) rotate(-22)"><g transform="translate(0 0)"><path class="a" d="M0,72.527H171.028L128.909,0H43.227Z" transform="translate(0 149.8)"/><path class="b" d="M128.131,71.212,85.664,0,9.717,127.683,0,144.494H85.676Z" transform="translate(45.551 0)"/><path class="c" d="M109.091,111.727,42.455,0,0,73.282l42.119,72.527h87.121Z" transform="translate(134.735 76.519)"/></g></g><g class="d" transform="translate(85.168 469.494) rotate(-22)"><g class="e" transform="translate(0 0)"><path class="f" d="M109.091,34.082,42.455,145.809,0,72.527,42.119,0h87.121Z" transform="translate(134.735 0)"/><path class="f" d="M0,0H171.028L128.909,72.527H43.227Z"/><path class="f" d="M128.131,73.282,85.664,144.494,9.717,16.811,0,0H85.676Z" transform="translate(45.55 77.834)"/></g></g><g class="d" transform="translate(341.264 366.025) rotate(-22)"><g class="e" transform="translate(0 0)"><path class="f" d="M109.091,34.082,42.455,145.809,0,72.527,42.119,0h87.121Z" transform="translate(134.735 0)"/><path class="f" d="M0,0H171.028L128.909,72.527H43.227Z"/><path class="f" d="M128.131,73.282,85.664,144.494,9.717,16.811,0,0H85.676Z" transform="translate(45.55 77.834)"/></g></g><g class="d" transform="translate(0 258.697) rotate(-22)"><g class="e" transform="translate(0 0)"><path class="f" d="M109.091,111.727,42.455,0,0,73.282l42.119,72.527h87.121Z" transform="translate(134.735 76.519)"/><path class="f" d="M0,72.527H171.028L128.909,0H43.227Z" transform="translate(0 149.801)"/><path class="f" d="M128.131,71.212,85.664,0,9.717,127.683,0,144.494H85.676Z" transform="translate(45.55 0)"/></g></g><g class="d" transform="translate(256.096 155.227) rotate(-22)"><g class="e" transform="translate(0 0)"><path class="f" d="M109.091,111.727,42.455,0,0,73.282l42.119,72.527h87.121Z" transform="translate(134.735 76.519)"/><path class="f" d="M0,72.527H171.028L128.909,0H43.227Z" transform="translate(0 149.801)"/><path class="f" d="M128.131,71.212,85.664,0,9.717,127.683,0,144.494H85.676Z" transform="translate(45.55 0)"/></g></g><g class="d" transform="translate(128.272 206.871) rotate(-22)"><g class="e" transform="translate(0 0)"><path class="f" d="M109.091,34.082,42.455,145.809,0,72.527,42.119,0h87.121Z" transform="translate(134.735 0)"/><path class="f" d="M0,0H171.028L128.909,72.527H43.227Z"/><path class="f" d="M128.131,73.282,85.664,144.494,9.717,16.811,0,0H85.676Z" transform="translate(45.55 77.834)"/></g></g><g class="d" transform="translate(426.431 576.822) rotate(-22)"><g class="e" transform="translate(0 0)"><path class="f" d="M109.091,111.727,42.455,0,0,73.282l42.119,72.527h87.121Z" transform="translate(134.735 76.519)"/><path class="f" d="M0,72.527H171.028L128.909,0H43.227Z" transform="translate(0 149.801)"/><path class="f" d="M128.131,71.212,85.664,0,9.717,127.683,0,144.494H85.676Z" transform="translate(45.55 0)"/></g></g><g class="d" transform="translate(298.607 628.466) rotate(-22)"><g class="e" transform="translate(0 0)"><path class="f" d="M109.091,34.082,42.455,145.809,0,72.527,42.119,0h87.121Z" transform="translate(134.735 0)"/><path class="f" d="M0,0H171.028L128.909,72.527H43.227Z"/><path class="f" d="M128.131,73.282,85.664,144.494,9.717,16.811,0,0H85.676Z" transform="translate(45.55 77.834)"/></g></g><g class="d" transform="translate(469.133 318.849) rotate(-22)"><g class="e" transform="translate(0 0)"><path class="f" d="M109.091,111.727,42.455,0,0,73.282l42.119,72.527h87.121Z" transform="translate(134.735 76.519)"/><path class="f" d="M0,72.527H171.028L128.909,0H43.227Z" transform="translate(0 149.801)"/><path class="f" d="M128.131,71.212,85.664,0,9.717,127.683,0,144.494H85.676Z" transform="translate(45.55 0)"/></g></g><g class="d" transform="translate(559.05 528.498) rotate(-22)"><g class="e" transform="translate(0 0)"><path class="f" d="M109.091,34.082,42.455,145.809,0,72.527,42.119,0h87.121Z" transform="translate(134.735 0)"/><path class="f" d="M0,0H171.028L128.909,72.527H43.227Z"/><path class="f" d="M128.131,73.282,85.664,144.494,9.717,16.811,0,0H85.676Z" transform="translate(45.55 77.834)"/></g></g></g></svg>