<svg xmlns="http://www.w3.org/2000/svg" width="36.443" height="36.443" viewBox="0 0 36.443 36.443">
  <path id="in" d="M18.221,0A18.221,18.221,0,1,0,36.443,18.221,18.223,18.223,0,0,0,18.221,0ZM12.926,27.546H8.489V14.195h4.438ZM10.708,12.372h-.029a2.313,2.313,0,1,1,.058-4.613,2.314,2.314,0,1,1-.029,4.613Zm18.22,15.174H24.491V20.4c0-1.8-.643-3.019-2.248-3.019a2.429,2.429,0,0,0-2.277,1.623,3.039,3.039,0,0,0-.146,1.083v7.456H15.382s.058-12.1,0-13.351H19.82v1.89a4.406,4.406,0,0,1,4-2.2c2.92,0,5.109,1.908,5.109,6.009Zm0,0" fill="#db2a42"/>
</svg>
