<svg xmlns="http://www.w3.org/2000/svg" xmlns:xlink="http://www.w3.org/1999/xlink" width="611.977" height="895.302" viewBox="0 0 611.977 895.302"><defs><style>.a,.c{fill:#f6f4f4;}.b{fill:#9ad5f8;}.c{stroke:#fff;}.c,.d,.e{stroke-width:5px;}.d,.e{fill:#fff;}.d{stroke:#f7f5f5;}.e{stroke:#f6f4f4;}.f{fill:#fdb232;}.g{fill:#db2a42;}.h{filter:url(#g);}.i{filter:url(#e);}.j{filter:url(#c);}.k{filter:url(#a);}</style><filter id="a" x="321.108" y="689.158" width="163.254" height="181.873" filterUnits="userSpaceOnUse"><feOffset dy="3" input="SourceAlpha"/><feGaussianBlur stdDeviation="3" result="b"/><feFlood flood-opacity="0.161"/><feComposite operator="in" in2="b"/><feComposite in="SourceGraphic"/></filter><filter id="c" x="185.9" y="193.999" width="210.214" height="99.509" filterUnits="userSpaceOnUse"><feOffset dy="3" input="SourceAlpha"/><feGaussianBlur stdDeviation="3" result="d"/><feFlood flood-opacity="0.161"/><feComposite operator="in" in2="d"/><feComposite in="SourceGraphic"/></filter><filter id="e" x="151.961" y="795.794" width="210.214" height="99.509" filterUnits="userSpaceOnUse"><feOffset dy="3" input="SourceAlpha"/><feGaussianBlur stdDeviation="3" result="f"/><feFlood flood-opacity="0.161"/><feComposite operator="in" in2="f"/><feComposite in="SourceGraphic"/></filter><filter id="g" x="188.379" y="596.991" width="162.008" height="180.396" filterUnits="userSpaceOnUse"><feOffset dy="3" input="SourceAlpha"/><feGaussianBlur stdDeviation="3" result="h"/><feFlood flood-opacity="0.161"/><feComposite operator="in" in2="h"/><feComposite in="SourceGraphic"/></filter></defs><g transform="translate(607.595 883.302) rotate(180)"><g transform="translate(0 0)"><g transform="translate(446.634 280.312) rotate(180)"><path class="a" d="M0,81.509H192.214L144.878,0H48.586Z" transform="translate(0 198.803)"/><g class="k" transform="matrix(1, 0, 0, 1, -160.96, -602.99)"><path class="b" d="M122.606,125.569,47.717,0,0,82.363l47.336,81.51h97.917Z" transform="translate(330.11 695.16)"/></g><path class="a" d="M144.008,80.033,96.275,0,10.921,143.5,0,162.4H96.292Z" transform="translate(36.418)"/></g><g transform="translate(412.695 683.303) rotate(180)"><g class="j" transform="matrix(1, 0, 0, 1, -194.9, -200)"><path class="b" d="M0,81.509H192.214L144.878,0H48.586Z" transform="translate(194.9 200)"/></g></g><g transform="translate(241.577 600.718) rotate(180)"><path class="c" d="M122.606,125.569,47.717,0,0,82.363l47.336,81.51h97.917Z" transform="translate(96.323 80.032)"/><path class="c" d="M144.008,80.033,96.275,0,10.921,143.5,0,162.4H96.292Z" transform="translate(0)"/></g><g transform="translate(0.078 168.098)"><path class="c" d="M0,81.509H192.214L144.878,0H48.586Z" transform="translate(0 82.364)"/><path class="c" d="M122.606,125.569,47.716,0,0,82.363l47.336,81.51h97.917Z" transform="translate(144.876 0)"/></g><g transform="translate(205.071 316.78)"><path class="d" d="M0,81.509H192.214L144.878,0H48.586Z" transform="translate(0 162.397)"/><path class="e" d="M122.606,125.569,47.716,0,0,82.363l47.336,81.51h97.917Z" transform="translate(144.876 80.033)"/><path class="d" d="M144.008,80.033,96.275,0,10.921,143.5,0,162.4H96.292Z" transform="translate(48.553)"/></g><g transform="translate(293.194 615.126)"><path class="a" d="M0,81.509H192.214L144.878,0H48.586Z" transform="translate(0 186.668)"/><path class="a" d="M122.606,125.569,47.716,0,0,82.363l47.336,81.51h97.917Z" transform="translate(169.147 80.033)"/><path class="a" d="M144.008,80.033,96.275,0,10.921,143.5,0,162.4H96.292Z" transform="translate(72.824 0)"/></g></g><g transform="translate(446.634 280.312) rotate(180)"><g class="i" transform="matrix(1, 0, 0, 1, -160.96, -602.99)"><path class="f" d="M0,81.509H192.214L144.878,0H48.586Z" transform="translate(160.96 801.79)"/></g><g class="h" transform="matrix(1, 0, 0, 1, -160.96, -602.99)"><path class="g" d="M144.008,80.033,96.275,0,10.921,143.5,0,162.4H96.292Z" transform="translate(197.38 602.99)"/></g></g></g></svg>