<svg xmlns="http://www.w3.org/2000/svg" width="871.639" height="620.608" viewBox="0 0 871.639 620.608"><defs><style>.a{opacity:0.747;}.b{opacity:0.201;}.c{fill:#c4baba;}</style></defs><g transform="matrix(0.799, -0.602, 0.602, 0.799, -146.286, 263.894)"><g class="a" transform="translate(85.781 416.126) rotate(-22)"><g class="b" transform="translate(0 0)"><path class="c" d="M109.876,34.327,42.76,146.858,0,73.049,42.422,0h87.748Z" transform="translate(135.704 0)"/><path class="c" d="M0,0H172.258L129.837,73.049h-86.3Z"/><path class="c" d="M129.053,73.809,86.281,145.533,9.787,16.932,0,0H86.293Z" transform="translate(45.878 78.394)"/></g></g><g class="a" transform="translate(343.719 311.912) rotate(-22)"><g class="b" transform="translate(0 0)"><path class="c" d="M109.876,34.327,42.76,146.858,0,73.049,42.422,0h87.748Z" transform="translate(135.704 0)"/><path class="c" d="M0,0H172.258L129.837,73.049h-86.3Z"/><path class="c" d="M129.053,73.809,86.281,145.533,9.787,16.932,0,0H86.293Z" transform="translate(45.878 78.394)"/></g></g><g class="a" transform="translate(0 203.812) rotate(-22)"><g class="b" transform="translate(0 0)"><path class="c" d="M109.876,112.531,42.76,0,0,73.809l42.422,73.049h87.748Z" transform="translate(135.704 77.069)"/><path class="c" d="M0,73.049H172.258L129.837,0h-86.3Z" transform="translate(0 150.878)"/><path class="c" d="M129.053,71.724,86.281,0,9.787,128.6,0,145.533H86.293Z" transform="translate(45.878 0)"/></g></g><g class="a" transform="translate(215.275 363.466) rotate(-22)"><g class="b" transform="translate(0 0)"><path class="c" d="M109.876,112.531,42.76,0,0,73.809l42.422,73.049h87.748Z" transform="translate(135.704 77.069)"/><path class="c" d="M0,73.049H172.258L129.837,0h-86.3Z" transform="translate(0 150.878)"/><path class="c" d="M129.053,71.724,86.281,0,9.787,128.6,0,145.533H86.293Z" transform="translate(45.878 0)"/></g></g><g class="a" transform="translate(257.939 99.598) rotate(-22)"><g class="b" transform="translate(0 0)"><path class="c" d="M109.876,112.531,42.76,0,0,73.809l42.422,73.049h87.748Z" transform="translate(135.704 77.069)"/><path class="c" d="M0,73.049H172.258L129.837,0h-86.3Z" transform="translate(0 150.878)"/><path class="c" d="M129.053,71.724,86.281,0,9.787,128.6,0,145.533H86.293Z" transform="translate(45.878 0)"/></g></g><g class="a" transform="translate(129.195 151.614) rotate(-22)"><g class="b" transform="translate(0 0)"><path class="c" d="M109.876,34.327,42.76,146.858,0,73.049,42.422,0h87.748Z" transform="translate(135.704 0)"/><path class="c" d="M0,0H172.258L129.837,73.049h-86.3Z"/><path class="c" d="M129.053,73.809,86.281,145.533,9.787,16.932,0,0H86.293Z" transform="translate(45.878 78.394)"/></g></g><g class="a" transform="translate(429.499 524.226) rotate(-22)"><g class="b" transform="translate(0 0)"><path class="c" d="M109.876,112.531,42.76,0,0,73.809l42.422,73.049h87.748Z" transform="translate(135.704 77.069)"/><path class="c" d="M0,73.049H172.258L129.837,0h-86.3Z" transform="translate(0 150.878)"/><path class="c" d="M129.053,71.724,86.281,0,9.787,128.6,0,145.533H86.293Z" transform="translate(45.878 0)"/></g></g><g class="a" transform="translate(300.756 576.242) rotate(-22)"><g class="b" transform="translate(0 0)"><path class="c" d="M109.876,34.327,42.76,146.858,0,73.049,42.422,0h87.748Z" transform="translate(135.704 0)"/><path class="c" d="M0,0H172.258L129.837,73.049h-86.3Z"/><path class="c" d="M129.053,73.809,86.281,145.533,9.787,16.932,0,0H86.293Z" transform="translate(45.878 78.394)"/></g></g><g class="a" transform="translate(472.508 264.397) rotate(-22)"><g class="b" transform="translate(0 0)"><path class="c" d="M109.876,112.531,42.76,0,0,73.809l42.422,73.049h87.748Z" transform="translate(135.704 77.069)"/><path class="c" d="M0,73.049H172.258L129.837,0h-86.3Z" transform="translate(0 150.878)"/><path class="c" d="M129.053,71.724,86.281,0,9.787,128.6,0,145.533H86.293Z" transform="translate(45.878 0)"/></g></g><g class="a" transform="translate(563.073 475.554) rotate(-22)"><g class="b" transform="translate(0 0)"><path class="c" d="M109.876,34.327,42.76,146.858,0,73.049,42.422,0h87.748Z" transform="translate(135.704 0)"/><path class="c" d="M0,0H172.258L129.837,73.049h-86.3Z"/><path class="c" d="M129.053,73.809,86.281,145.533,9.787,16.932,0,0H86.293Z" transform="translate(45.878 78.394)"/></g></g></g></svg>