<svg xmlns="http://www.w3.org/2000/svg" width="276.078" height="212.382" viewBox="0 0 276.078 212.382"><defs><style>.a{fill:#fdb232;}.b{fill:#dd273e;}.c{fill:#9ad5f8;}.d{opacity:0.747;}.e{opacity:0.201;}.f{fill:#c4baba;}</style></defs><g transform="translate(347.202 176.039) rotate(158)"><g transform="translate(219.939 49.664) rotate(22)"><g transform="translate(0 0)"><path class="a" d="M0,0H80.776L60.883,34.254H20.416Z" transform="translate(0 0)"/><path class="b" d="M60.516,34.611,40.459,68.244,4.59,7.94,0,0H40.465Z" transform="translate(21.513 36.761)"/><path class="c" d="M51.523,16.1,20.051,68.865,0,34.254,19.893,0H61.039Z" transform="translate(63.635 0)"/></g></g><g class="d" transform="translate(97.017 0) rotate(22)"><g class="e" transform="translate(0 0)"><path class="f" d="M51.523,52.768,20.051,0,0,34.611,19.893,68.865H61.039Z" transform="translate(130.87 36.14)"/><path class="f" d="M0,34.254H80.776L60.883,0H20.416Z" transform="translate(0 70.75)"/><path class="f" d="M60.516,33.633,40.459,0,4.59,60.3,0,68.244H40.465Z" transform="translate(88.748 0)"/></g></g><g class="d" transform="translate(39.335 92.506) rotate(22)"><g class="e" transform="translate(0 0)"><path class="f" d="M51.523,16.1,20.051,68.865,0,34.254,19.893,0H61.039Z" transform="translate(149.698 0)"/><path class="f" d="M0,0H80.776L60.883,34.254H20.416Z" transform="translate(86.063 0)"/><path class="f" d="M60.516,34.611,40.459,68.244,4.59,7.94,0,0H40.465Z" transform="translate(0 36.761)"/></g></g><g class="d" transform="translate(179.714 149.223) rotate(22)"><g class="e" transform="translate(0 0)"><path class="f" d="M51.523,52.768,20.051,0,0,34.611,19.893,68.865H61.039Z" transform="translate(63.635 36.14)"/><path class="f" d="M0,34.254H80.776L60.883,0H20.416Z" transform="translate(0 70.75)"/><path class="f" d="M60.516,33.633,40.459,0,4.59,60.3,0,68.244H40.465Z" transform="translate(21.513 0)"/></g></g></g></svg>