<svg xmlns="http://www.w3.org/2000/svg" width="398.846" height="529.948" viewBox="0 0 398.846 529.948"><defs><style>.a,.d{fill:#fdb232;}.b,.e{fill:#9ad5f8;}.c,.f{fill:#dd273e;}.d,.e,.f{stroke:#fff;stroke-width:5px;}</style></defs><g transform="translate(4.382 0)"><g transform="translate(272.099 170.772) rotate(180)"><path class="a" d="M0,49.657H117.1L88.263,0H29.6Z" transform="translate(0 121.115)"/><path class="b" d="M74.694,76.5,29.07,0,0,50.178,28.838,99.835H88.492Z" transform="translate(103.048 56.151)"/><path class="c" d="M87.733,48.758,58.653,0l-52,87.424L0,98.935H58.663Z" transform="translate(22.186)"/></g><g transform="translate(246.911 529.948) rotate(180)"><path class="a" d="M0,49.657H117.1L88.263,0H29.6Z" transform="translate(0 105.64)"/><path class="b" d="M74.694,76.5,29.07,0,0,50.178,28.838,99.835H88.492Z" transform="translate(103.048 55.462)"/><path class="c" d="M87.733,48.758,58.653,0l-52,87.424L0,98.935H58.663Z" transform="translate(31.495 0)"/></g><g transform="translate(124.934 192.99)"><path class="d" d="M0,1179.307H117.1L88.263,1129.65H29.6Z" transform="translate(0 -1030.714)"/><path class="e" d="M1082.474,633.219l-45.625-76.5L1007.78,606.9l28.838,49.658h59.653Z" transform="translate(-919.518 -507.962)"/><path class="f" d="M425.693,48.758,396.613,0l-52,87.424L337.96,98.935h58.663Z" transform="translate(-308.38)"/></g><g transform="translate(176.753 365.971) rotate(180)"><path class="d" d="M0,49.657H117.1L88.263,0H29.6Z" transform="translate(0 98.936)"/><path class="e" d="M74.694,76.5,29.07,0,0,50.178,28.838,99.835H88.492Z" transform="translate(88.262 48.758)"/><path class="f" d="M87.733,48.758,58.653,0l-52,87.424L0,98.935H58.663Z" transform="translate(29.58)"/></g><g transform="translate(390.063 341.582) rotate(180)"><path class="d" d="M0,49.657H117.1L88.263,0H29.6Z" transform="translate(0 98.936)"/><path class="e" d="M74.694,76.5,29.07,0,0,50.178,28.838,99.835H88.492Z" transform="translate(88.262 48.758)"/><path class="f" d="M87.733,48.758,58.653,0l-52,87.424L0,98.935H58.663Z" transform="translate(29.58)"/></g><g transform="translate(0.048 53.651)"><path class="d" d="M0,1179.307H117.1L88.263,1129.65H29.6Z" transform="translate(0 -1030.714)"/><path class="e" d="M1082.474,633.219l-45.625-76.5L1007.78,606.9l28.838,49.658h59.653Z" transform="translate(-919.518 -507.962)"/><path class="f" d="M425.693,48.758,396.613,0l-52,87.424L337.96,98.935h58.663Z" transform="translate(-308.38 0)"/></g><g transform="translate(166.17 375.518)"><path class="a" d="M0,1179.307H117.1L88.263,1129.65H29.6Z" transform="translate(0 -1025.505)"/><path class="b" d="M1082.474,633.219l-45.625-76.5L1007.78,606.9l28.838,49.658h59.653Z" transform="translate(-912.394 -502.216)"/><path class="c" d="M425.693,48.758,396.613,0l-52,87.424L337.96,98.935h58.663Z" transform="translate(-305.087 0)"/></g></g></svg>