<svg xmlns="http://www.w3.org/2000/svg" width="606.55" height="479.01" viewBox="0 0 606.55 479.01">
  <g id="Group_1399" data-name="Group 1399" transform="translate(194.848 -165.447) rotate(22)">
    <g id="Group_13" data-name="Group 13" transform="translate(149.932 290.111) rotate(-22)">
      <g id="Group_1" data-name="Group 1" transform="translate(0 0)">
        <path id="Path_113" data-name="Path 113" d="M0,50.947H120.14L90.553,0H30.365Z" transform="translate(0 105.228)" fill="#fdb232"/>
        <path id="Path_114" data-name="Path 114" d="M90.006,50.023,60.175,0,6.826,89.692,0,101.5H60.184Z" transform="translate(31.997 0)" fill="#dd273e"/>
        <path id="Asset_3" data-name="Asset 3" d="M76.632,78.483,29.823,0,0,51.477l29.587,50.947h61.2Z" transform="translate(94.646 53.751)" fill="#9ad5f8"/>
      </g>
    </g>
    <g id="Group_25" data-name="Group 25" transform="translate(59.827 326.516) rotate(-22)" opacity="0.747">
      <g id="Group_3" data-name="Group 3" opacity="0.201">
        <path id="Asset_3-2" data-name="Asset 3" d="M76.632,23.941,29.823,102.424,0,50.947,29.587,0h61.2Z" transform="translate(94.645 0)" fill="#c4baba"/>
        <path id="Path_2" data-name="Path 2" d="M0,0H120.14L90.553,50.947H30.365Z" transform="translate(-100 0)" fill="#c4baba"/>
        <path id="Path_1" data-name="Path 1" d="M90.006,51.477,60.175,101.5,6.826,11.809,0,0H60.184Z" transform="translate(31.997 54.675)" fill="#c4baba"/>
      </g>
    </g>
    <g id="Group_26" data-name="Group 26" transform="translate(239.723 253.834) rotate(-22)" opacity="0.747">
      <g id="Group_3-2" data-name="Group 3" transform="translate(0 0)" opacity="0.201">
        <path id="Asset_3-3" data-name="Asset 3" d="M76.632,23.941,29.823,102.424,0,50.947,29.587,0h61.2Z" transform="translate(94.645 0)" fill="#c4baba"/>
        <path id="Path_2-2" data-name="Path 2" d="M0,0H120.14L90.553,50.947H30.365Z" fill="#c4baba"/>
        <path id="Path_1-2" data-name="Path 1" d="M90.006,51.477,60.175,101.5,6.826,11.809,0,0H60.184Z" transform="translate(31.997 54.675)" fill="#c4baba"/>
      </g>
    </g>
    <g id="Group_27" data-name="Group 27" transform="translate(0 178.44) rotate(-22)" opacity="0.747">
      <g id="Group_3-3" data-name="Group 3" transform="translate(0 0)" opacity="0.201">
        <path id="Asset_3-4" data-name="Asset 3" d="M76.632,78.483,29.823,0,0,51.477l29.587,50.947h61.2Z" transform="translate(94.645 53.751)" fill="#c4baba"/>
        <path id="Path_2-3" data-name="Path 2" d="M0,50.947H120.14L90.553,0H30.365Z" transform="translate(0 105.228)" fill="#c4baba"/>
        <path id="Path_1-3" data-name="Path 1" d="M90.006,50.023,60.175,0,6.826,89.692,0,101.5H60.184Z" transform="translate(-128.003 0)" fill="#c4baba"/>
      </g>
    </g>
    <g id="Group_28" data-name="Group 28" transform="translate(179.897 105.758) rotate(-22)" opacity="0.747">
      <g id="Group_3-4" data-name="Group 3" transform="translate(0 0)" opacity="0.201">
        <path id="Asset_3-5" data-name="Asset 3" d="M76.632,78.483,29.823,0,0,51.477l29.587,50.947h61.2Z" transform="translate(94.645 53.751)" fill="#c4baba"/>
        <path id="Path_2-4" data-name="Path 2" d="M0,50.947H120.14L90.553,0H30.365Z" transform="translate(0 105.228)" fill="#c4baba"/>
        <path id="Path_1-4" data-name="Path 1" d="M90.006,50.023,60.175,0,6.826,89.692,0,101.5H60.184Z" transform="translate(31.997 0)" fill="#c4baba"/>
      </g>
    </g>
    <g id="Group_29" data-name="Group 29" transform="translate(90.106 142.035) rotate(-22)" opacity="0.747">
      <g id="Group_3-5" data-name="Group 3" transform="translate(0 0)" opacity="0.201">
        <path id="Asset_3-6" data-name="Asset 3" d="M76.632,23.941,29.823,102.424,0,50.947,29.587,0h61.2Z" transform="translate(94.645 0)" fill="#c4baba"/>
        <path id="Path_2-5" data-name="Path 2" d="M0,0H120.14L90.553,50.947H30.365Z" fill="#c4baba"/>
        <path id="Path_1-5" data-name="Path 1" d="M90.006,51.477,60.175,101.5,6.826,11.809,0,0H60.184Z" transform="translate(31.997 54.675)" fill="#c4baba"/>
      </g>
    </g>
    <g id="Group_252" data-name="Group 252" transform="translate(329.545 220.695) rotate(-22)" opacity="0.747">
      <g id="Group_3-6" data-name="Group 3" transform="translate(0 0)" opacity="0.201">
        <path id="Asset_3-7" data-name="Asset 3" d="M76.632,78.483,29.823,0,0,51.477l29.587,50.947h61.2Z" transform="translate(94.645 53.751)" fill="#c4baba"/>
        <path id="Path_2-6" data-name="Path 2" d="M0,50.947H120.14L90.553,0H30.365Z" transform="translate(0 105.228)" fill="#c4baba"/>
        <path id="Path_1-6" data-name="Path 1" d="M90.006,50.023,60.175,0,6.826,89.692,0,101.5H60.184Z" transform="translate(31.997 0)" fill="#c4baba"/>
      </g>
    </g>
    <g id="Group_253" data-name="Group 253" transform="translate(392.709 367.964) rotate(-22)" opacity="0.747">
      <g id="Group_3-7" data-name="Group 3" transform="translate(0 0)" opacity="0.201">
        <path id="Asset_3-8" data-name="Asset 3" d="M76.632,23.941,29.823,102.424,0,50.947,29.587,0h61.2Z" transform="translate(94.645 0)" fill="#c4baba"/>
        <path id="Path_2-7" data-name="Path 2" d="M0,0H120.14L90.553,50.947H30.365Z" fill="#c4baba"/>
        <path id="Path_1-7" data-name="Path 1" d="M90.006,51.477,60.175,101.5,6.826,11.809,0,0H60.184Z" transform="translate(31.997 54.675)" fill="#c4baba"/>
      </g>
    </g>
  </g>
</svg>
