<svg xmlns="http://www.w3.org/2000/svg" width="414.556" height="686.298" viewBox="0 0 414.556 686.298">
  <g id="Group_1441" data-name="Group 1441" transform="translate(-1074.003 -4087.851)">
    <g id="Group_1393" data-name="Group 1393" transform="translate(1379.897 4277.083) rotate(180)">
      <path id="Path_14" data-name="Path 14" d="M0,55.025H129.759L97.8,0h-65Z" transform="translate(0 134.207)" fill="#fdb232"/>
      <path id="Path_15" data-name="Path 15" d="M82.769,84.768,32.212,0,0,55.6l31.956,55.025h66.1Z" transform="translate(114.187 62.22)" fill="#9ad5f8"/>
      <path id="Path_16" data-name="Path 16" d="M97.217,54.028,64.993,0,7.373,96.874,0,109.63H65Z" transform="translate(24.585)" fill="#dd273e"/>
    </g>
    <g id="Group_1394" data-name="Group 1394" transform="translate(1351.986 4667.655) rotate(180)">
      <path id="Path_14-2" data-name="Path 14" d="M0,55.025H129.759L97.8,0h-65Z" transform="translate(0 109.63)" fill="#fdb232"/>
      <path id="Path_15-2" data-name="Path 15" d="M82.769,84.768,32.212,0,0,55.6l31.956,55.025h66.1Z" transform="translate(114.187 54.028)" fill="#9ad5f8"/>
      <path id="Path_16-2" data-name="Path 16" d="M97.217,54.028,64.993,0,7.373,96.874,0,109.63H65Z" transform="translate(32.777)" fill="#dd273e"/>
    </g>
    <g id="Group_1395" data-name="Group 1395" transform="translate(1216.824 4301.702)">
      <path id="Path_14-3" data-name="Path 14" d="M0,1184.675H129.759L97.8,1129.65h-65Z" transform="translate(0 -1020.02)" fill="#fdb232" stroke="#fff" stroke-width="5"/>
      <path id="Path_15-3" data-name="Path 15" d="M1090.549,641.488l-50.556-84.768-32.212,55.6,31.956,55.025h66.1Z" transform="translate(-909.978 -502.692)" fill="#9ad5f8" stroke="#fff" stroke-width="5"/>
      <path id="Path_16-3" data-name="Path 16" d="M435.177,54.028,402.953,0l-57.62,96.874L337.96,109.63h65Z" transform="translate(-305.183)" fill="#dd273e" stroke="#fff" stroke-width="5"/>
    </g>
    <g id="Group_1396" data-name="Group 1396" transform="translate(1274.246 4493.382) rotate(180)">
      <path id="Path_14-4" data-name="Path 14" d="M0,55.025H129.759L97.8,0h-65Z" transform="translate(0 109.63)" fill="#fdb232" stroke="#fff" stroke-width="5"/>
      <path id="Path_15-4" data-name="Path 15" d="M82.769,84.768,32.212,0,0,55.6l31.956,55.025h66.1Z" transform="translate(97.802 54.028)" fill="#9ad5f8" stroke="#fff" stroke-width="5"/>
      <path id="Path_16-4" data-name="Path 16" d="M97.217,54.028,64.993,0,7.373,96.874,0,109.63H65Z" transform="translate(32.777)" fill="#dd273e" stroke="#fff" stroke-width="5"/>
    </g>
    <g id="Group_1397" data-name="Group 1397" transform="translate(1078.438 4147.302)">
      <path id="Path_14-5" data-name="Path 14" d="M0,1184.675H129.759L97.8,1129.65h-65Z" transform="translate(0 -1020.02)" fill="#fdb232" stroke="#fff" stroke-width="5"/>
      <path id="Path_15-5" data-name="Path 15" d="M1090.549,641.488l-50.556-84.768-32.212,55.6,31.956,55.025h66.1Z" transform="translate(-909.978 -502.692)" fill="#9ad5f8" stroke="#fff" stroke-width="5"/>
      <path id="Path_16-5" data-name="Path 16" d="M435.177,54.028,402.953,0l-57.62,96.874L337.96,109.63h65Z" transform="translate(-305.183 0)" fill="#dd273e" stroke="#fff" stroke-width="5"/>
    </g>
    <g id="Group_1398" data-name="Group 1398" transform="translate(1276.314 4593.108)">
      <path id="Path_14-6" data-name="Path 14" d="M0,1184.675H129.759L97.8,1129.65h-65Z" transform="translate(0 -1003.635)" fill="#fdb232"/>
      <path id="Path_15-6" data-name="Path 15" d="M1090.549,641.488l-50.556-84.768-32.212,55.6,31.956,55.025h66.1Z" transform="translate(-893.593 -502.692)" fill="#9ad5f8"/>
      <path id="Path_16-6" data-name="Path 16" d="M435.177,54.028,402.953,0l-57.62,96.874L337.96,109.63h65Z" transform="translate(-288.798 0)" fill="#dd273e"/>
    </g>
  </g>
</svg>
