<svg xmlns="http://www.w3.org/2000/svg" xmlns:xlink="http://www.w3.org/1999/xlink" width="481.304" height="699.334" viewBox="0 0 481.304 699.334"><defs><style>.a,.c{fill:#f6f4f4;}.b{fill:#9ad5f8;}.c{stroke:#fff;}.c,.d,.e{stroke-width:5px;}.d,.e{fill:#fff;}.d{stroke:#f7f5f5;}.e{stroke:#f6f4f4;}.f{fill:#fdb232;}.g{fill:#db2a42;}.h{filter:url(#i);}.i{filter:url(#g);}.j{filter:url(#e);}.k{filter:url(#c);}.l{filter:url(#a);}</style><filter id="a" x="99.177" y="19.051" width="132.015" height="146.63" filterUnits="userSpaceOnUse"><feOffset dy="3" input="SourceAlpha"/><feGaussianBlur stdDeviation="3" result="b"/><feFlood flood-opacity="0.161"/><feComposite operator="in" in2="b"/><feComposite in="SourceGraphic"/></filter><filter id="c" x="168.445" y="472.369" width="168.876" height="81.979" filterUnits="userSpaceOnUse"><feOffset dy="3" input="SourceAlpha"/><feGaussianBlur stdDeviation="3" result="d"/><feFlood flood-opacity="0.161"/><feComposite operator="in" in2="d"/><feComposite in="SourceGraphic"/></filter><filter id="e" x="162.359" y="546.813" width="131.037" height="145.47" filterUnits="userSpaceOnUse"><feOffset dy="3" input="SourceAlpha"/><feGaussianBlur stdDeviation="3" result="f"/><feFlood flood-opacity="0.161"/><feComposite operator="in" in2="f"/><feComposite in="SourceGraphic"/></filter><filter id="g" x="195.085" y="0" width="168.876" height="81.979" filterUnits="userSpaceOnUse"><feOffset dy="3" input="SourceAlpha"/><feGaussianBlur stdDeviation="3" result="h"/><feFlood flood-opacity="0.161"/><feComposite operator="in" in2="h"/><feComposite in="SourceGraphic"/></filter><filter id="i" x="204.338" y="92.556" width="131.037" height="145.47" filterUnits="userSpaceOnUse"><feOffset dy="3" input="SourceAlpha"/><feGaussianBlur stdDeviation="3" result="j"/><feFlood flood-opacity="0.161"/><feComposite operator="in" in2="j"/><feComposite in="SourceGraphic"/></filter></defs><g transform="translate(4.382 6)"><g transform="translate(0 0)"><g transform="translate(350.578 220.026) rotate(180)"><path class="a" d="M0,63.979H150.876L113.72,0H38.137Z" transform="translate(0 156.047)"/><g class="l" transform="matrix(-1, 0, 0, -1, 354.96, 226.03)"><path class="b" d="M96.238,98.563,37.454,0,0,64.65l37.156,63.98h76.859Z" transform="translate(222.19 153.68) rotate(180)"/></g><path class="a" d="M113.037,62.821,75.569,0l-67,112.639L0,127.47H75.583Z" transform="translate(28.585)"/></g><g transform="translate(323.938 674.284) rotate(180)"><g class="k" transform="matrix(-1, 0, 0, -1, 328.32, 680.28)"><path class="a" d="M0,63.979H150.876L113.72,0H38.137Z" transform="translate(328.32 542.35) rotate(180)"/></g><path class="a" d="M96.238,98.563,37.454,0,0,64.65l37.156,63.98h76.859Z" transform="translate(138.583 62.82)"/><g class="j" transform="matrix(-1, 0, 0, -1, 328.32, 680.28)"><path class="a" d="M113.037,62.821,75.569,0l-67,112.639L0,127.47H75.583Z" transform="translate(284.4 680.28) rotate(180)"/></g></g><g transform="translate(227.733 471.524) rotate(180)"><path class="c" d="M0,63.979H150.876L113.72,0H38.137Z" transform="translate(0 127.471)"/><path class="c" d="M96.238,98.563,37.454,0,0,64.65l37.156,63.98h76.859Z" transform="translate(113.718 62.82)"/><path class="c" d="M113.037,62.821,75.569,0l-67,112.639L0,127.47H75.583Z" transform="translate(38.111)"/></g><g transform="translate(0.061 69.125)"><path class="c" d="M0,63.979H150.876L113.72,0H38.137Z" transform="translate(0 127.471)"/><path class="c" d="M96.238,98.563,37.454,0,0,64.65l37.156,63.98h76.859Z" transform="translate(113.718 62.82)"/><path class="c" d="M113.037,62.821,75.569,0l-67,112.639L0,127.47H75.583Z" transform="translate(38.111 0)"/></g><g transform="translate(160.967 248.652)"><path class="d" d="M0,63.979H150.876L113.72,0H38.137Z" transform="translate(0 127.471)"/><path class="e" d="M96.238,98.563,37.454,0,0,64.65l37.156,63.98h76.859Z" transform="translate(113.718 62.82)"/><path class="d" d="M113.037,62.821,75.569,0l-67,112.639L0,127.47H75.583Z" transform="translate(38.111)"/></g><g transform="translate(230.138 482.833)"><path class="a" d="M0,63.979H150.876L113.72,0H38.137Z" transform="translate(0 146.522)"/><path class="a" d="M96.238,98.563,37.454,0,0,64.65l37.156,63.98h76.859Z" transform="translate(132.769 62.82)"/><path class="a" d="M113.037,62.821,75.569,0l-67,112.639L0,127.47H75.583Z" transform="translate(57.162 0)"/></g></g><g transform="translate(350.578 220.026) rotate(180)"><g class="i" transform="matrix(-1, 0, 0, -1, 354.96, 226.03)"><path class="f" d="M0,63.979H150.876L113.72,0H38.137Z" transform="translate(354.96 69.98) rotate(180)"/></g><g class="h" transform="matrix(-1, 0, 0, -1, 354.96, 226.03)"><path class="g" d="M113.037,62.821,75.569,0l-67,112.639L0,127.47H75.583Z" transform="translate(326.37 226.03) rotate(180)"/></g></g></g></svg>